# xmcd
#
# Track frame offsets: 
#        150
#        15528
#        25268
#        36220
#        51071
#        65456
#        76670
#        91714
#        103658
#        117641
#        125965
#        142246
#        156196
#        165307
#        173477
#        184885
#        193320
#        206447
#        215627
#        228999
#        243805
#        262401
#        277948
#        290646
#        305796
#        322635
#
# Disc length: 4472 seconds
#
# Revision: 0
# Processed by: cddbd v1.5.2PL0 Copyright (c) Steve Scherf et al.
# Submitted via: ExactAudioCopyFreeDBPlugin 1.0
#
DISCID=7811761a
DTITLE=Frantisek Nedved - Galerie pisni
DYEAR=2012
DGENRE=Country
TTITLE0=Franky dlouhan
TTITLE1=Jizni kriz
TTITLE2=Hrasek
TTITLE3=Floky
TTITLE4=To jsem ja
TTITLE5=Rodice
TTITLE6=Nic vic
TTITLE7=Jsem jenom chlap
TTITLE8=Laduv betlem
TTITLE9=Kura
TTITLE10=Jako ptaci
TTITLE11=Jesitnej chlap
TTITLE12=¨Nova
TTITLE13=Obrazek oblazek
TTITLE14=Krouzek
TTITLE15=Prazce
TTITLE16=Pletenka
TTITLE17=Toulam se
TTITLE18=Prazdny dum
TTITLE19=Naposled
TTITLE20=Protokol
TTITLE21=Nesmis bejt chvili sam
TTITLE22=Rozchod
TTITLE23=¨Co stim delat muzu
TTITLE24=Svatebni
TTITLE25=Pisnicka je lek
EXTD=
EXTT0=
EXTT1=
EXTT2=
EXTT3=
EXTT4=
EXTT5=
EXTT6=
EXTT7=
EXTT8=
EXTT9=
EXTT10=
EXTT11=
EXTT12=
EXTT13=
EXTT14=
EXTT15=
EXTT16=
EXTT17=
EXTT18=
EXTT19=
EXTT20=
EXTT21=
EXTT22=
EXTT23=
EXTT24=
EXTT25=
PLAYORDER=
